<svg xmlns="http://www.w3.org/2000/svg" xmlns:xlink="http://www.w3.org/1999/xlink" width="80" height="80" viewBox="0 0 80 80">
    <defs>
        <path id="um20xue8na" d="M0.245 0.357L32.179 0.357 32.179 39.589 0.245 39.589z"/>
        <path id="ciwlnv9frc" d="M0.178 0.462L18.758 0.462 18.758 12.735 0.178 12.735z"/>
        <path id="biu4t5fuie" d="M0.178 0.462L18.758 0.462 18.758 12.735 0.178 12.735z"/>
    </defs>
    <g fill="none" fill-rule="evenodd">
        <path fill="#FFF" fill-rule="nonzero" d="M0 0H80V80H0z"/>
        <path fill="#FEFEFE" fill-rule="nonzero" d="M0 79.869L79.869 79.869 79.869 0 0 0z"/>
        <g fill-rule="nonzero">
            <path fill="#123155" d="M54.721 16.709L36.91 6.425c-3-1.732-7.535-1.92-10.133-.42L8.531 16.538.015 18.556v4.265c-.007.095-.005.191 0 .287v.066h.003c.084 1.094.914 2.23 2.467 3.125l23.368 13.492c3 1.731 7.536 1.92 10.133.42l2.645-1.527 22.374-12.918c1.224-.706 1.79-1.664 1.742-2.658h.008v-4.321l-8.034-2.078z" transform="translate(8.553 30.058)"/>
            <path fill="#E9E8E7" d="M61.005 21.214L35.985 35.66c-2.597 1.498-7.133 1.31-10.132-.421L2.485 21.749c-3-1.733-3.325-4.352-.727-5.851L26.776 1.453c2.598-1.5 7.134-1.312 10.132.42l23.369 13.491c3 1.731 3.325 4.35.728 5.85" transform="translate(8.553 30.058)"/>
        </g>
        <g>
            <path fill="#033158" d="M1.186 30.575L27.102 45.538 27.111 42.264 1.194 27.301z" transform="translate(22 12)"/>
            <path fill="#0061B2" d="M27.111 42.264L27.102 45.538 34.209 41.409 34.218 38.135z" transform="translate(22 12)"/>
            <path fill="#83282A" d="M1.194 27.301L1.186 30.575 1.195 27.301z" transform="translate(22 12)"/>
            <g>
                <path fill="#ADADAD" d="M27.144 24.274l-.003-.035c-.012-.144-.03-.29-.053-.436l-.002-.016c-.023-.143-.052-.288-.085-.433l-.01-.043c-.033-.141-.07-.281-.113-.422l-.01-.034c-.044-.148-.094-.296-.148-.442-.003-.009-.006-.018-.01-.024-.054-.145-.111-.289-.172-.432-.004-.008-.009-.017-.012-.026-.064-.145-.133-.29-.204-.432l-.017-.035c-.062-.118-.126-.236-.191-.352l-.053-.095c-.04-.07-.085-.138-.128-.207-.048-.078-.095-.156-.146-.232-.175-.266-.363-.52-.562-.763l-.009-.01c-.101-.122-.206-.24-.313-.354-.009-.009-.017-.02-.026-.027-.101-.108-.205-.211-.31-.31l-.037-.035c-.104-.097-.21-.189-.317-.277l-.037-.03c-.112-.09-.225-.176-.34-.256l-.02-.014c-.123-.086-.248-.165-.373-.238L4.988 7.609c-.124-.071-.246-.134-.367-.19l-.016-.008c-.122-.057-.243-.104-.362-.145l-.01-.004c-.114-.04-.228-.07-.339-.096-.007 0-.013-.003-.02-.005-.109-.024-.215-.04-.32-.05l-.024-.003c-.101-.009-.198-.01-.294-.007h-.033c-.102.005-.202.017-.298.035l-.007.002c-.094.018-.186.045-.274.078l-.018.005c-.046.017-.088.041-.132.061-.045.022-.091.04-.134.065-.674.387-1.093 1.215-1.096 2.395l-.05 17.497 25.917 14.964.05-17.498c0-.141-.005-.286-.017-.431" transform="translate(22 12) translate(0 .061)"/>
                <g transform="translate(22 12) translate(0 .061) translate(2.09 2.614)">
                    <mask id="az8dfzuv8b" fill="#fff">
                        <use xlink:href="#um20xue8na"/>
                    </mask>
                    <path fill="#E9E8E7" d="M32.173 17.797c-.002-.06-.003-.121-.007-.182-.002-.027-.001-.054-.003-.083l-.003-.039-.008-.06c-.005-.06-.014-.12-.022-.181-.007-.063-.012-.126-.023-.19l-.003-.024-.032-.162c-.012-.065-.024-.13-.039-.195l-.013-.071-.01-.04-.022-.085c-.016-.066-.035-.132-.052-.197-.014-.049-.025-.098-.04-.146l-.008-.028-.008-.025c-.02-.064-.043-.128-.065-.191-.02-.064-.04-.128-.064-.192l-.01-.03-.015-.04c-.014-.038-.03-.074-.045-.112-.023-.06-.048-.12-.073-.18-.019-.047-.035-.093-.055-.14l-.006-.01c-.004-.011-.01-.02-.013-.03-.026-.06-.056-.12-.085-.18-.03-.065-.06-.132-.093-.197-.004-.01-.008-.02-.013-.028l-.023-.044c-.026-.05-.054-.1-.082-.15-.033-.064-.066-.127-.101-.19l-.059-.104-.022-.035c-.031-.054-.065-.106-.097-.158-.05-.083-.1-.166-.154-.246l-.026-.037c-.076-.115-.153-.228-.234-.338-.055-.074-.113-.144-.17-.216-.046-.06-.092-.121-.14-.18-.048-.058-.099-.111-.147-.167-.048-.054-.095-.11-.144-.162l-.026-.03-.016-.016c-.037-.04-.075-.075-.113-.112-.052-.054-.103-.106-.156-.157-.016-.015-.031-.033-.048-.048l-.034-.031c-.027-.026-.055-.048-.082-.072-.056-.05-.11-.1-.166-.146-.025-.02-.049-.044-.074-.063-.01-.01-.022-.018-.032-.027l-.06-.046-.165-.123c-.039-.03-.077-.06-.117-.088l-.02-.015-.023-.014c-.053-.036-.108-.069-.162-.103-.05-.033-.102-.067-.154-.098l-.036-.022L10.007.865C9.965.841 9.925.824 9.883.802l-.152-.08C9.7.708 9.667.689 9.637.675 9.629.67 9.621.666 9.613.664c-.01-.006-.02-.009-.03-.014C9.53.627 9.48.61 9.428.59 9.38.569 9.331.548 9.283.53L9.259.52 9.236.514C9.201.5 9.166.494 9.13.484 9.078.467 9.026.452 8.976.44l-.07-.02-.03-.007C8.857.41 8.84.41 8.822.406c-.056-.011-.11-.018-.166-.025-.03-.004-.06-.012-.091-.015-.012 0-.023-.002-.035-.004-.012 0-.024.002-.037 0C8.434.36 8.374.36 8.315.36c-.023 0-.045-.003-.068-.001L8.19.36c-.024 0-.047.007-.071.008-.069.007-.139.013-.205.026H7.91c-.015.004-.029.01-.045.012-.075.019-.15.04-.222.064l-.005.002c-.1.038-.196.08-.286.133L.245 4.736l.007-.003c.043-.025.09-.043.134-.064.043-.02.086-.045.131-.062l.02-.005c.002-.003.006-.004.01-.006.068-.024.14-.042.211-.057.016-.005.03-.01.046-.013l.004-.001.003-.001c.002 0 .004 0 .007-.002.067-.013.134-.022.205-.029l.06-.003c.012-.001.021-.003.032-.003h.033c.023 0 .045-.003.068-.003.058 0 .116.002.176.005.011.001.022.004.033.004l.017.001c.01 0 .016.003.024.003.03.003.06.005.092.01.054.007.108.015.162.026l.048.012c.007 0 .012.001.018.003.007 0 .014.004.021.004.022.006.044.01.067.015.051.013.102.027.154.043.033.01.067.021.1.033l.018.005c.002.002.007.003.01.004l.021.007c.05.017.101.037.15.057.05.02.1.04.15.063l.028.014.012.004.016.008.095.045c.05.025.102.051.153.08.04.02.079.043.119.066L21.354 15.65l.037.021.157.097c.054.034.106.069.159.106.007.003.014.009.021.015.008.003.014.009.021.014.04.028.08.056.12.086.055.04.11.081.164.124l.055.045.036.03.075.06c.055.048.111.096.165.145l.079.073.036.034.05.046.157.155.103.109.026.027.024.024.145.162c.049.055.096.11.144.168l.001.001.008.01.135.167c.056.071.112.144.166.218.08.11.16.222.236.337l.025.04c.05.076.098.154.146.233.035.055.072.11.106.168l.022.038.053.095.11.195.08.157.019.035.015.032c.033.065.065.13.096.197.027.06.056.12.082.18l.01.023.012.027c.018.043.037.084.054.127l.074.182.045.122.009.024.014.036.066.19c.022.064.042.13.062.194l.006.022.01.034c.014.047.029.094.041.141.019.066.036.132.052.198l.02.083.01.043.016.07c.015.064.027.13.04.194l.029.17.002.015.001.003c.01.062.019.126.027.187.008.062.014.123.02.183l.005.063.002.036.008.083.008.18c.002.057.002.112.002.168l-.05 17.497 7.107-4.13.05-17.497c0-.054-.005-.111-.007-.165" mask="url(#az8dfzuv8b)"/>
                </g>
                <path fill="#E9E8E7" d="M27.159 24.541c-.002-.06-.004-.12-.008-.18l-.008-.093v-.017l-.007-.072c-.006-.062-.012-.123-.02-.184s-.017-.125-.027-.187c-.01-.062-.02-.126-.032-.189l-.04-.194c-.005-.025-.01-.05-.017-.073l-.007-.032-.02-.092c-.018-.065-.036-.13-.052-.197-.016-.05-.03-.101-.045-.151l-.005-.016c-.004-.01-.006-.02-.008-.03l-.063-.193c-.021-.063-.043-.127-.066-.19l-.015-.042-.005-.013-.049-.128c-.024-.06-.047-.12-.073-.18l-.054-.127-.013-.03-.009-.021c-.026-.06-.054-.12-.082-.18-.03-.067-.062-.132-.095-.197l-.015-.03-.021-.04c-.026-.051-.052-.103-.08-.155-.034-.064-.071-.127-.107-.19-.019-.034-.036-.067-.056-.1l-.02-.037c-.032-.053-.066-.104-.099-.157-.052-.083-.101-.166-.155-.247-.01-.011-.015-.025-.024-.037-.076-.114-.155-.226-.236-.337-.054-.073-.109-.145-.165-.216-.046-.059-.092-.117-.14-.173 0-.002-.002-.002-.003-.003v-.002c-.048-.056-.095-.113-.144-.167-.048-.056-.097-.11-.146-.162l-.02-.021-.037-.04-.096-.099c-.051-.053-.104-.104-.157-.156l-.05-.046-.038-.036-.076-.07c-.055-.05-.11-.099-.166-.145-.025-.022-.05-.041-.076-.062-.01-.01-.023-.02-.035-.029l-.055-.045-.164-.125c-.04-.03-.081-.059-.123-.087l-.017-.013-.022-.016c-.053-.035-.105-.07-.159-.104l-.158-.097-.036-.021L4.988 7.613l-.12-.066c-.05-.029-.101-.055-.152-.08l-.096-.045c-.009-.004-.017-.01-.026-.012l-.03-.014c-.05-.023-.1-.043-.149-.063-.05-.021-.1-.04-.15-.057l-.023-.007-.029-.01-.097-.032c-.053-.016-.104-.03-.155-.043l-.073-.016-.033-.007c-.015-.003-.032-.008-.047-.01-.055-.011-.11-.02-.163-.028l-.1-.01c-.01 0-.02-.003-.031-.003-.013 0-.024-.003-.036-.003-.059-.004-.117-.006-.174-.006-.026 0-.05.002-.075.003l-.057.003c-.02.002-.042.002-.062.002-.073.008-.145.018-.215.032l-.004.002-.04.01c-.074.017-.146.036-.217.06l-.015.007c-.1.037-.196.08-.286.133l-1.236.717c.09-.052.186-.095.285-.131.072-.026.147-.046.222-.065l.052-.014c.09-.018.183-.029.278-.035l.059-.002c.091-.003.186-.002.283.005.012 0 .024.003.037.005.1.009.204.024.309.047l.03.006c.107.025.217.055.329.092l.023.009c.117.04.236.087.357.143l.015.007c.124.056.25.122.375.194l18.456 10.655c.124.072.247.15.368.234l.034.024c.11.078.22.16.328.246l.046.038c.104.086.207.176.308.27l.046.043c.103.097.205.198.304.303l.026.028c.108.115.214.234.316.357h.001c.1.121.196.245.29.372l.016.02.038.056c.076.104.15.21.22.317.055.081.105.165.157.248l.12.195.058.105c.062.107.12.216.177.326l.032.061c.069.138.135.277.196.416l.018.042c.058.135.113.272.165.409.004.014.01.028.016.043.052.144.1.288.145.432l.013.046c.04.137.077.274.109.41l.013.055c.032.143.06.285.084.426l.002.015c.023.146.04.29.052.433l.004.047c.01.143.017.285.017.424l-.009 2.998 1.236-.718.009-2.998-.003-.168" transform="translate(22 12) translate(0 .061)"/>
                <path fill="#CECDCC" d="M22.207 18.986c2.06 1.19 3.726 4.071 3.719 6.441l-.008 2.998c-3.318 1.926-7.91 1.653-12.977-1.273-5.068-2.927-9.646-7.947-12.94-13.69l.008-2.998c.006-2.37 1.683-3.322 3.742-2.133l18.456 10.655z" transform="translate(22 12) translate(0 .061)"/>
                <path fill="#01243B" d="M23.83 9.352c0 .035-.007.071-.017.106l-.004.014c-.012.032-.029.065-.05.096l-.01.017c-.024.032-.052.062-.084.092-.02.017-.043.032-.065.048-.023.017-.045.035-.072.051-.095.055-.205.095-.32.124l-.049.012c-.116.025-.237.04-.36.04h-.014c-.128 0-.256-.015-.378-.042l-.013-.004c-.123-.03-.24-.072-.339-.13-.206-.118-.308-.274-.308-.43l-.014 4.647c0 .155.103.31.309.43.047.026.098.05.15.071.04.017.084.031.127.043l.061.015c.005 0 .009.003.015.004l.032.008.104.018c.033.004.067.009.101.011.034.003.068.005.102.005h.107c.039-.001.076-.004.116-.007.044-.006.088-.011.132-.02.02-.002.038-.01.057-.014.018-.002.033-.007.048-.011l.091-.022c.083-.028.16-.062.23-.102l.012-.007c.02-.013.034-.026.052-.04.025-.017.052-.034.072-.053l.008-.004c.024-.023.045-.046.065-.07l.01-.016.012-.018.019-.028c.01-.02.02-.04.028-.06.002-.002.002-.005.003-.009l.002-.012c.004-.013.01-.025.012-.038.004-.02.006-.04.007-.06v-.279l.013-4.376z" transform="translate(22 12) translate(0 .061)"/>
                <path fill="#01243B" d="M23.836 9.352c0 .035-.007.071-.017.106l-.004.014c-.012.032-.029.065-.05.096l-.01.017c-.024.032-.052.062-.083.092-.02.017-.044.032-.065.048-.024.017-.045.035-.073.051-.094.055-.205.095-.32.124l-.048.012c-.116.025-.237.04-.36.04h-.014c-.129 0-.257-.015-.378-.042l-.014-.004c-.123-.03-.239-.072-.339-.13-.206-.118-.308-.274-.308-.43l-.013 4.647c0 .155.102.31.308.43.047.026.098.05.15.071.04.017.084.031.128.043l.06.015c.005 0 .01.003.015.004l.032.008.104.018c.033.004.067.009.101.011.034.003.069.005.102.005h.107c.039-.001.077-.004.116-.007.044-.006.088-.011.132-.02.02-.002.038-.01.058-.014.017-.002.032-.007.048-.011l.091-.022c.082-.028.16-.062.23-.102l.012-.007c.02-.013.034-.026.052-.04.024-.017.051-.034.073-.053l.006-.004c.024-.023.045-.046.065-.07l.01-.016.013-.018.018-.028c.011-.02.02-.04.028-.06.002-.002.002-.005.003-.009l.002-.012c.005-.013.01-.025.012-.038.005-.02.007-.04.007-.06l.001-.279.012-4.376z" transform="translate(22 12) translate(0 .061)"/>
                <path fill="#01243B" d="M23.523 8.923c.408.236.408.62.005.853-.407.236-1.064.236-1.473 0-.409-.236-.411-.617-.005-.853.403-.234 1.064-.237 1.473 0M12.156 2.38c0 .035-.008.07-.018.105l-.004.014c-.011.032-.029.065-.05.096l-.01.017c-.024.032-.051.063-.084.09-.019.018-.043.034-.064.05-.024.017-.045.035-.073.052-.094.054-.205.093-.32.123l-.049.011c-.115.026-.236.041-.358.041h-.015c-.128 0-.257-.014-.378-.043l-.014-.003c-.122-.03-.238-.071-.339-.13-.206-.119-.309-.274-.308-.429l-.013 4.645c0 .156.102.312.308.43.047.027.098.051.15.072.041.017.083.03.127.043.02.006.041.01.062.015.005.001.009.003.014.003l.033.008.103.019c.034.005.067.008.1.01.035.004.07.005.103.006h.107c.04-.002.077-.004.116-.008.044-.004.088-.01.132-.018.02-.003.038-.01.057-.014.017-.005.033-.01.049-.012.03-.009.062-.013.091-.023.082-.027.16-.06.23-.1l.012-.009c.02-.011.034-.025.052-.038.024-.018.051-.035.072-.054.002-.001.006-.002.007-.005.025-.021.046-.045.064-.069.005-.005.008-.01.01-.017.006-.005.01-.012.014-.018l.018-.028c.012-.02.02-.038.028-.059l.003-.009.003-.012c.004-.012.009-.025.011-.037.004-.021.006-.04.007-.06l.001-.28.013-4.376z" transform="translate(22 12) translate(0 .061)"/>
                <path fill="#01243B" d="M12.162 2.38c0 .035-.007.07-.017.105l-.004.014c-.012.032-.03.065-.05.096l-.01.017c-.024.032-.052.063-.084.09-.02.018-.043.034-.065.05-.024.017-.045.035-.072.052-.095.054-.205.093-.32.123l-.049.011c-.116.026-.237.041-.36.041h-.014c-.128 0-.256-.014-.378-.043l-.013-.003c-.123-.03-.24-.071-.339-.13-.206-.119-.309-.274-.308-.429l-.013 4.645c-.001.156.102.312.308.43.047.027.097.051.15.072.04.017.083.03.126.043.02.006.041.01.062.015.005.001.009.003.014.003l.033.008.104.019c.033.005.067.008.101.01.034.004.068.005.102.006h.107c.039-.002.077-.004.115-.008.045-.004.09-.01.133-.018.02-.003.038-.01.057-.014.017-.005.032-.01.049-.012.03-.009.061-.013.09-.023.083-.027.16-.06.23-.1l.013-.009c.02-.011.034-.025.051-.038.025-.018.052-.035.073-.054.002-.001.004-.002.006-.005.025-.021.046-.045.065-.069l.01-.017c.005-.005.009-.012.013-.018l.019-.028c.01-.02.02-.038.028-.059l.003-.009.002-.012c.004-.012.01-.025.012-.037.004-.021.006-.04.007-.06v-.28l.013-4.376z" transform="translate(22 12) translate(0 .061)"/>
                <path fill="#01243B" d="M11.849 1.95c.408.236.407.619.004.854-.406.235-1.064.235-1.473 0-.408-.236-.411-.617-.004-.854.402-.235 1.064-.236 1.473 0" transform="translate(22 12) translate(0 .061)"/>
                <g transform="translate(22 12) translate(0 .061) translate(8.364)">
                    <mask id="6p41hgenrd" fill="#fff">
                        <use xlink:href="#ciwlnv9frc"/>
                    </mask>
                    <path fill="#F54A4F" d="M18.756 10.245l-.002-.05-.004-.048-.004-.05-.008-.05-.001-.006-.008-.045-.01-.052-.013-.053-.014-.053-.012-.04-.003-.01-.001-.005-.017-.051-.017-.052-.019-.049c-.007-.018-.012-.033-.02-.05l-.016-.036c0-.002 0-.004-.002-.006l-.003-.006-.022-.05-.026-.053-.032-.06-.035-.064-.006-.011-.008-.014c-.024-.04-.05-.082-.076-.121-.02-.03-.042-.06-.064-.09l-.045-.06-.038-.047-.04-.046-.039-.044-.041-.044-.042-.042-.045-.041-.045-.038-.022-.019-.005-.003-.017-.016c-.016-.01-.03-.022-.045-.034-.014-.01-.029-.021-.044-.03l-.042-.03-.043-.025c-.003-.002-.007-.004-.01-.004L3.987.599 3.955.581l-.041-.02C3.9.552 3.887.546 3.872.54l-.04-.018-.04-.014C3.789.508 3.786.508 3.784.506L3.78.504 3.752.495 3.71.484l-.042-.01-.044-.006-.03-.004H3.59L3.58.463 3.531.462c-.018 0-.035 0-.053.002L3.42.47 3.42.472c-.001.002-.002.002-.004.002-.022.004-.045.01-.066.017-.028.011-.055.024-.082.039L.178 2.325c.046-.026.096-.045.148-.056H.33c.053-.012.11-.015.17-.01l.003.002c.06.004.122.018.187.039l.003.001c.066.023.133.054.203.094l13.764 7.946c.069.04.136.087.201.14l.005.003c.064.052.126.11.185.174l.003.002c.12.128.227.275.317.431l.006.01c.043.076.083.155.119.235v.003c.036.081.067.164.092.246 0 .002 0 .005.002.007.05.167.078.335.077.493 0 .08-.008.153-.02.22l-.001.005c-.014.066-.033.125-.058.178v.003c-.022.044-.048.082-.077.118-.009.01-.017.024-.028.034-.033.036-.07.068-.11.092l3.09-1.797c.04-.023.077-.054.11-.09l.029-.036c.012-.015.025-.027.035-.044.014-.022.027-.045.038-.07l.002-.001.002-.006.022-.05.017-.053.013-.052.004-.02.002-.01.004-.02.007-.048.005-.048.003-.048.002-.049v-.004c0-.014 0-.029-.002-.044" mask="url(#6p41hgenrd)"/>
                </g>
                <g transform="translate(22 12) translate(0 .061) translate(8.364)">
                    <mask id="xucp8k3l0f" fill="#fff">
                        <use xlink:href="#biu4t5fuie"/>
                    </mask>
                    <path fill="#CECDCC" d="M18.756 10.245l-.002-.05-.004-.048-.004-.05-.008-.05-.001-.006-.008-.045-.01-.052-.013-.053-.014-.053-.012-.04-.003-.01-.001-.005-.017-.051-.017-.052-.019-.049c-.007-.018-.012-.033-.02-.05l-.016-.036c0-.002 0-.004-.002-.006l-.003-.006-.022-.05-.026-.053-.032-.06-.035-.064-.006-.011-.008-.014c-.024-.04-.05-.082-.076-.121-.02-.03-.042-.06-.064-.09l-.045-.06-.038-.047-.04-.046-.039-.044-.041-.044-.042-.042-.045-.041-.045-.038-.022-.019-.005-.003-.017-.016c-.016-.01-.03-.022-.045-.034-.014-.01-.029-.021-.044-.03l-.042-.03-.043-.025c-.003-.002-.007-.004-.01-.004L3.987.599 3.955.581l-.041-.02C3.9.552 3.887.546 3.872.54l-.04-.018-.04-.014C3.789.508 3.786.508 3.784.506L3.78.504 3.752.495 3.71.484l-.042-.01-.044-.006-.03-.004H3.59L3.58.463 3.531.462c-.018 0-.035 0-.053.002L3.42.47 3.42.472c-.001.002-.002.002-.004.002-.022.004-.045.01-.066.017-.028.011-.055.024-.082.039L.178 2.325c.046-.026.096-.045.148-.056H.33c.053-.012.11-.015.17-.01l.003.002c.06.004.122.018.187.039l.003.001c.066.023.133.054.203.094l13.764 7.946c.069.04.136.087.201.14l.005.003c.064.052.126.11.185.174l.003.002c.12.128.227.275.317.431l.006.01c.043.076.083.155.119.235v.003c.036.081.067.164.092.246 0 .002 0 .005.002.007.05.167.078.335.077.493 0 .08-.008.153-.02.22l-.001.005c-.014.066-.033.125-.058.178v.003c-.022.044-.048.082-.077.118-.009.01-.017.024-.028.034-.033.036-.07.068-.11.092l3.09-1.797c.04-.023.077-.054.11-.09l.029-.036c.012-.015.025-.027.035-.044.014-.022.027-.045.038-.07l.002-.001.002-.006.022-.05.017-.053.013-.052.004-.02.002-.01.004-.02.007-.048.005-.048.003-.048.002-.049v-.004c0-.014 0-.029-.002-.044" mask="url(#xucp8k3l0f)"/>
                </g>
                <path fill="#ADADAD" d="M23.024 10.341c.556.322 1.01 1.105 1.007 1.744-.002.644-.456.9-1.014.578L9.254 4.718c-.557-.322-1.009-1.102-1.008-1.745.002-.64.457-.9 1.014-.578l13.764 7.946z" transform="translate(22 12) translate(0 .061)"/>
                <path fill="#E9E8E7" d="M10.678 28.385l.008-2.572 3.41 1.97-.008 2.57-3.41-1.968zm4.262-1.192L9.843 24.25l-.013 4.721 5.097 2.944.013-4.722z" transform="translate(22 12) translate(0 .061)"/>
                <path fill="#CECDCC" d="M14.096 27.783L10.686 25.813 10.678 28.385 14.089 30.353z" transform="translate(22 12) translate(0 .061)"/>
                <path fill="#ADADAD" d="M14.94 27.193L14.927 31.915 16.083 31.243 16.096 26.521z" transform="translate(22 12) translate(0 .061)"/>
                <path fill="#ADADAD" d="M16.087 26.41c0-.04-.007-.08-.01-.12-.002-.042-.005-.083-.01-.125-.003-.043-.004-.084-.01-.127-.005-.045-.003-.087-.01-.133-.007-.041-.02-.083-.028-.125-.009-.044-.022-.088-.03-.132l-.031-.133c-.012-.046-.02-.091-.033-.137-.01-.037-.013-.073-.024-.11l-.002-.004c-.002-.008-.006-.016-.009-.023-.013-.043-.032-.086-.047-.13l-.047-.127-.046-.126c-.017-.042-.03-.084-.047-.126-.013-.031-.02-.064-.036-.096l-.001-.004c-.003-.008-.008-.016-.012-.023-.017-.04-.041-.08-.06-.121-.021-.044-.045-.088-.067-.132-.026-.05-.05-.103-.078-.153-.029-.054-.051-.11-.082-.163-.007-.01-.012-.021-.018-.032-.007-.01-.015-.022-.02-.032-.061-.102-.13-.2-.196-.299-.052-.076-.097-.157-.15-.23l-.002-.003-.002-.002c-.037-.05-.08-.093-.12-.143l-.098-.12-.097-.116c-.032-.037-.061-.078-.094-.113l-.019-.022-.006-.007c-.027-.028-.057-.05-.083-.077-.037-.038-.075-.07-.11-.104l-.114-.105c-.035-.033-.07-.07-.108-.102-.018-.014-.034-.033-.052-.048l-.016-.013c-.014-.012-.03-.02-.045-.032-.038-.03-.079-.052-.118-.081l-.112-.078c-.036-.024-.07-.051-.106-.073-.034-.022-.067-.051-.102-.07l-.023-.017c-.028-.016-.056-.028-.084-.044l-.104-.054c-.022-.01-.044-.023-.066-.034l-.013-.006c-.007-.004-.015-.005-.022-.008-.036-.017-.07-.029-.105-.042-.033-.013-.067-.03-.1-.042-.006 0-.012-.003-.017-.006-.004 0-.009-.002-.013-.004l-.075-.021-.104-.029c-.016-.004-.031-.01-.046-.013l-.025-.005-.033-.006c-.039-.007-.076-.012-.114-.017-.022-.003-.045-.008-.067-.01l-.017-.002h-.028c-.04-.003-.082-.003-.123-.003H12.315c-.017.002-.031.006-.047.007-.047.005-.095.009-.14.018h-.002c-.02.004-.037.01-.056.016-.042.01-.085.021-.126.036h-.004c-.068.025-.134.056-.197.092l-1.146.666c.034-.02.072-.034.107-.05.023-.01.044-.023.069-.032l.014-.005.006-.002c.044-.016.091-.027.14-.039l.036-.01h.003c.004-.002.008-.002.012-.002.043-.009.088-.016.134-.02.014 0 .028 0 .042-.002l.02-.002h.024c.016 0 .03-.003.046-.003.04 0 .08.002.12.005l.022.002h.012l.02.003.06.006c.037.006.073.011.111.02l.032.006c.004 0 .007 0 .012.002.006 0 .011.003.017.004l.043.01c.036.008.07.019.106.03l.066.02.013.004c.004.001.006.003.01.003l.013.006.103.038.102.043.021.01.006.002.01.005.066.032c.034.017.07.035.104.054.028.014.054.03.08.045l.026.014c.036.022.073.044.108.067.037.023.073.047.109.072.036.025.075.051.11.079.038.027.076.056.113.085l.04.033.02.015c.016.016.036.03.054.044l.112.1c.039.034.076.069.113.104.036.034.072.07.106.106l.075.078.013.013.017.018.1.11.098.115c.033.04.066.08.097.12.039.05.077.099.113.149h.001l.002.003c.054.074.107.15.159.226.065.098.129.2.189.302l.019.034.018.032.089.158c.027.051.053.102.078.154l.065.133c.02.041.038.082.056.123l.008.017.007.017.037.087.05.124.047.125.016.044.03.086.042.132.006.02.003.013.03.102c.013.044.024.09.036.134l.03.134.028.134.022.128c.007.042.013.086.018.128.006.043.01.084.014.125l.01.125c.003.04.005.082.006.123l.001.115 1.157-.672c0-.035-.009-.075-.01-.11" transform="translate(22 12) translate(0 .061)"/>
                <path fill="#E9E8E7" d="M14.94 27.193c.002-.403-.068-.825-.195-1.248 0-.005-.002-.008-.003-.012-.025-.082-.062-.164-.09-.246-.045-.125-.085-.25-.138-.373l-.007-.016c-.087-.2-.187-.396-.297-.586l-.017-.032c-.113-.194-.235-.382-.367-.562l-.002-.002c-.133-.18-.276-.353-.425-.513l-.014-.014c-.147-.155-.301-.3-.46-.43l-.02-.016c-.163-.132-.331-.25-.505-.35-.084-.049-.169-.092-.252-.131l-.01-.005c-.083-.038-.165-.07-.244-.099-.004 0-.007-.002-.01-.003-.077-.026-.153-.047-.228-.063l-.017-.005c-.073-.016-.145-.027-.215-.034l-.02-.002c-.068-.006-.134-.008-.2-.005h-.023c-.067.004-.133.012-.197.024-.003 0-.008 0-.012.002-.064.012-.125.03-.185.051l-.015.005c-.024.01-.045.022-.068.032-.036.016-.073.03-.107.05l-.002.002-.004.002c-.46.265-.746.831-.748 1.636l5.097 2.943z" transform="translate(22 12) translate(0 .061)"/>
            </g>
        </g>
    </g>
</svg>