<?xml version="1.0" encoding="UTF-8"?>
<!-- Generator: Adobe Illustrator 22.0.1, SVG Export Plug-In . SVG Version: 6.00 Build 0)  -->
<svg version="1.1" id="design" xmlns="http://www.w3.org/2000/svg" xmlns:xlink="http://www.w3.org/1999/xlink" x="0px" y="0px" viewBox="0 0 681.4 170" style="enable-background:new 0 0 681.4 170;" xml:space="preserve">
<style type="text/css">
	.st0{fill:url(#SVGID_1_);}
	.st1{fill:url(#SVGID_2_);}
	.st2{fill:url(#SVGID_3_);}
	.st3{fill:#231F1F;}
</style>
<image style="display:none;overflow:visible;" width="820" height="211" xlink:href="E39A302F.jpg" transform="matrix(1 0 0 1 53.299 141)">
</image>
<g>
	<g transform="matrix(.569 0 0 .569 199.451 -82.735)">
		
			<linearGradient id="SVGID_1_" gradientUnits="userSpaceOnUse" x1="-45880.6719" y1="32344.8008" x2="-45776.9883" y2="32406.0664" gradientTransform="matrix(6.754030e-02 0 0 -6.754030e-02 2793.6953 2598.9482)">
			<stop offset="0" style="stop-color:#909CA9"/>
			<stop offset="1" style="stop-color:#EDEDEE"/>
		</linearGradient>
		<path class="st0" d="M-178.2,284.8l-59.8,19.5l-52,23l-14.5,3.8c-3.7,3.5-7.6,7-11.9,10.7c-4.5,4-8.9,7.6-12.2,10.3    c-3.7,2.9-9.1,8.4-11.9,11.7c-4.1,5.1-7.3,10.6-8.8,14.8c-2.5,7.6-1.3,15.2,3.5,22.4c6.2,9.1,18.5,18.3,32.7,24.5    c7.3,3.2,19.5,7.3,28.7,9.7c15.4,4,45,8.1,61.3,8.8c3.4,0.1,7.8,0.1,7.9,0c0.3-0.3,2.9-5.1,5.9-11.1c10-20.5,17.3-39.7,21.3-56.2    c2.3-10,4.3-23.2,5.4-38.9c0.3-4.4,0.4-19.1,0.1-24c-0.4-8.2-1.2-14.8-2.2-21.3c-0.1-0.9-0.3-1.8-0.1-1.9c0.1-0.1,0.7-0.3,8.1-2.5    L-178.2,284.8L-178.2,284.8L-178.2,284.8L-178.2,284.8z M-191.8,292.9c0.6,0,2.1,13.9,2.3,22.7c0.1,1.9,0,3.1,0,3.1    c-0.3,0-7.6-4.3-12.9-7.6c-4.5-2.8-13-8.5-14.5-9.7c-0.4-0.3-0.4-0.3,3.4-1.6C-207.2,297.7-192.2,292.9-191.8,292.9z     M-222.3,302.9c0.4,0,1.5,0.6,4,2.1c9.4,5.9,22,12.9,27.4,15.2c1.6,0.7,1.9,0.4-2.1,3.1c-8.2,5.6-18.5,11.1-31.1,16.7    c-2.2,1-4.1,1.8-4.1,1.8c-0.1,0,0.1-1.2,0.6-2.5c3.1-11.3,4.7-22.7,4.8-31.8C-222.7,303-222.7,303-222.3,302.9    C-222.4,302.9-222.3,302.9-222.3,302.9L-222.3,302.9z M-228.6,305.4c0.3,0.3,0.1,10.4-0.3,13.2c-0.9,6.6-2.1,12.8-4.1,19.6    c-0.4,1.6-0.9,3.1-1,3.2c-0.1,0.3-6.5-5.9-8.4-8.2c-3.5-4.1-6.3-8.2-8.4-12.2c-1-2.1-2.6-6-2.5-6.2    C-252.6,314.3-228.7,305.2-228.6,305.4L-228.6,305.4z M-258.2,316.9C-258.1,316.9-258.1,316.9-258.2,316.9    c0.3,0.1,0.6,0.9,0.9,1.6c1.5,4,4.7,9.7,7.5,13.5c3.1,4.1,7,8.4,10.4,11.3c1,0.9,2.1,1.8,2.2,1.9c0.3,0.3,0.3,0.3-7,3.1    c-8.5,3.2-17.9,6.5-28.6,10c-2.5,0.9-5.1,1.6-7.6,2.5c-0.4,0.1-0.3-0.1,0.9-1.9c5.3-8.2,13.3-24.5,17.9-36.1    c0.7-2.1,1.5-4,1.6-4.4c0.1-0.6,0.4-0.9,1-1.2C-258.6,317.1-258.4,316.9-258.2,316.9L-258.2,316.9z M-267.2,320.8    c0.1,0.1-2.2,5-4.4,9.4c-4.4,8.5-9.2,17-15.5,27.1c-1,1.8-2.1,3.4-2.2,3.5c-0.3,0.3-0.3,0.3-1-1.2c-1.5-3.1-2.8-6.9-3.5-10.6    c-0.7-3.5-0.6-9.7,0.3-13.5c0.6-2.8,0.6-2.8,1.9-3.4C-286.1,329.3-267.4,320.5-267.2,320.8L-267.2,320.8z M-189.2,323.8v1.9    c0,10.1-1,23.9-2.6,34c-0.3,1.8-0.4,3.2-0.6,3.2c0,0-1.3-0.3-2.8-0.9c-6.7-2.1-14.2-5.3-20.8-8.9c-4.4-2.3-10.7-6.3-10.6-6.5    c0,0,1.9-1,4.1-2.2c8.8-4.5,17.3-9.5,24.8-14.5c2.8-1.9,6.9-4.8,7.8-5.7L-189.2,323.8L-189.2,323.8z M-301.3,337.3    c0.1,0,0.1,0.3-0.1,2.1c-0.1,1.2-0.4,3.4-0.4,4.8c-0.3,6.6,0.7,11.4,4,18.2c0.9,1.9,1.6,3.4,1.6,3.4c-0.3,0.3-30.2,9.1-39.7,11.6    c-2.8,0.7-5.3,1.5-5.4,1.5c-0.3,0.1-0.3,0-0.3-0.7c1-6.6,6.2-15.4,13.2-22.7c4.7-4.8,8.5-7.8,14.8-11.4    C-309.1,341.4-301.9,337.5-301.3,337.3C-301.5,337.3-301.3,337.3-301.3,337.3L-301.3,337.3z M-230.8,349.9c0,0,1.2,0.6,2.5,1.3    c9.7,5.6,23.2,10.8,34.6,13.5l1,0.3l-1.5,0.9c-6,3.4-25.8,11.6-46,19.1c-2.9,1-5.9,2.2-6.5,2.3c-0.6,0.3-1,0.3-1,0.3    s0.9-1.6,1.9-3.5c5.7-10.6,11.3-23.5,14.2-32.4C-231.1,350.7-230.8,349.9-230.8,349.9L-230.8,349.9z M-238,352.3    c0,0-0.3,1-0.7,2.1c-4,9.5-9.1,19.9-15.7,31.7c-1.6,2.9-3.1,5.4-3.1,5.4s-1.5-0.9-3.1-1.8c-9.5-5.9-18-13-23.6-20.1l-0.9-1    l4.1-1.2c14.8-4,27.3-8.4,39.7-13.6C-239.4,352.9-238,352.3-238,352.3z M-193.3,367.8L-193.3,367.8c0,1-2.2,10.4-4.1,17.2    c-1.6,5.7-2.9,10.1-5.4,17.9c-1,3.4-2.1,6.3-2.1,6.3s-0.3,0-0.6-0.1c-13.5-2.5-25.5-5.9-36.8-10.4c-3.2-1.3-7.6-3.4-7.9-3.5    c-0.1-0.1,2.6-1.3,6-2.8c20.5-8.9,41.9-19.2,49.3-23.6C-194.1,368.1-193.4,367.8-193.3,367.8L-193.3,367.8z M-296.5,371.3    c0.1,0.1-5.7,8.4-13.6,19.6c-2.8,4-6,8.5-7.3,10.3c-1.2,1.8-3.1,4.4-4.1,6l-1.9,2.9l-2.1-1.8c-2.3-2.1-6.6-6.3-8.4-8.7    c-4-4.8-6.5-10-7.6-14.7c-0.4-2.2-0.4-3.2,0-3.4c0.7-0.1,12.8-3.1,24-5.7c6.3-1.5,13.6-3.2,16.1-3.8    C-298.7,371.9-296.5,371.3-296.5,371.3L-296.5,371.3z M-290.6,373.5l1.5,1.6c6.5,7.3,13.2,12.6,21.3,17.3c1.5,0.9,2.5,1.5,2.5,1.6    c-0.3,0.3-28,10-40.8,14.5c-7.2,2.5-13,4.5-13.2,4.5c0,0-0.4-0.3-0.9-0.6l-0.9-0.6l1.3-1.9c4.3-6.2,9.5-12.9,21.3-27L-290.6,373.5    L-290.6,373.5z M-254.5,399.3c0,0,2.1,0.7,4.5,1.6c5.9,2.2,10.6,3.7,16.7,5.1c7.6,1.9,18.8,3.8,25.4,4.4c1,0.1,1.5,0.1,1.3,0.3    c-0.3,0.1-7,2.3-11.9,4c-7.8,2.5-31.5,9.4-50.9,15c-3.5,1-6.6,1.9-6.9,1.9c-0.4,0.1-1.9-0.3-1.9-0.4c0-0.1,1-1.5,2.3-3.1    c6.5-7.8,13-16.4,18.3-24.6C-255.9,401.3-254.5,399.5-254.5,399.3L-254.5,399.3z M-262.6,399.6c0,0-3.2,5.1-8.8,14.1    c-2.3,3.8-5.1,8.1-6,9.5c-0.9,1.5-2.2,3.7-3.1,5l-1.3,2.3l-0.7-0.1c-1.6-0.4-13-4.5-16.1-5.7c-3.8-1.5-7.6-3.4-10.6-4.8    c-3.7-1.9-8.2-4.8-7.8-5c0.1,0,6.3-1.8,13.8-3.8c19.8-5.4,30.8-8.5,38-10.7C-263.8,399.9-262.6,399.6-262.6,399.6L-262.6,399.6z     M-206.2,412.8L-206.2,412.8c0.3,0.4-7,20.8-9.8,27.3c-0.6,1.5-0.9,1.8-1.2,1.8c-0.7,0-11.4-1.5-17.9-2.5    c-11.3-1.8-30.2-5-34.9-6.2l-1-0.3l6.7-1.5c14.5-3.2,21.4-5,28.4-7.2c8.9-2.8,17.7-6.2,26.7-10.3    C-207.8,413.4-206.6,412.8-206.2,412.8L-206.2,412.8z"/>
		
			<linearGradient id="SVGID_2_" gradientUnits="userSpaceOnUse" x1="-45862.4648" y1="35909.2109" x2="-45779.0391" y2="35909.2109" gradientTransform="matrix(6.754030e-02 0 0 -6.754030e-02 2793.6953 2598.9482)">
			<stop offset="0" style="stop-color:#939FAB"/>
			<stop offset="1" style="stop-color:#DCDEE1"/>
		</linearGradient>
		<path class="st1" d="M-239.9,145.4c-1-0.1-17,5.7-27.4,9.8c-13.9,5.7-24.8,11.1-31.5,15.8c-2.5,1.8-5.6,4.8-6.2,6.2    c-0.1,0.4-0.3,1-0.3,1.5l6,5.7l14.4,4.5l34.3,6.2l39.3,6.7l0.4-3.4c-0.1,0-0.3,0-0.3,0l-5.1-0.9l-1-1.9    c-5.3-9.4-11.3-21.1-14.7-28.9c-2.6-6.2-5.1-13.2-6.6-18.2C-239.3,145.7-239.3,145.4-239.9,145.4L-239.9,145.4L-239.9,145.4    L-239.9,145.4z M-240.6,147.8L-240.6,147.8c0.1,0,0.3,1.3,0.4,2.8c0.7,6.3,2.2,12.5,4.4,19.1c1.6,5,1.6,4.7-0.3,4.1    c-4.5-1.3-25.2-4.8-40.3-6.9c-2.3-0.3-4.4-0.6-4.4-0.7c-0.1-0.1,10.8-5.9,15.7-8.2C-258.8,155.1-241.8,147.9-240.6,147.8    L-240.6,147.8z M-284.2,168l1.8,0.6c9.5,3.2,33.7,7.9,46.9,8.9c1.5,0.1,2.8,0.3,2.8,0.3s-1.2,0.7-2.8,1.5    c-6.5,3.2-13.5,7.2-18.3,10.1c-1.5,0.9-2.8,1.6-2.9,1.6c-0.1,0-1.2-0.1-2.1-0.3l-1.8-0.3l-4.5-4.4c-7.9-7.8-14.2-13.6-16.6-16    L-284.2,168z M-285.9,169.5l6.3,7.9c3.5,4.4,7,8.7,7.8,9.7c0.7,0.9,1.5,1.8,1.3,1.8c-0.1,0.1-9.2-1.6-14.1-2.8    c-5-1.2-7-1.6-10-2.6l-2.5-0.9v-0.6c0-3.1,4-7.6,10.4-12.2L-285.9,169.5L-285.9,169.5z M-231.8,180.3c0.1,0,0.4,0.4,0.9,1.6    c1.5,3.4,6.3,12.5,7.5,14.2c0.3,0.6,1,0.6-5.4-0.4c-15.4-2.5-20.2-3.4-20.2-3.4s0.4-0.3,1-0.7c4.7-2.6,9.5-6,13.8-9.5    c1-0.9,2.1-1.6,2.2-1.8C-232,180.3-231.8,180.2-231.8,180.3L-231.8,180.3z"/>
		
			<radialGradient id="SVGID_3_" cx="6487.4028" cy="18607.0098" r="132.332" gradientTransform="matrix(-5.429395e-02 -8.157122e-03 -1.649755e-02 0.1086 441.9577 -1714.7938)" gradientUnits="userSpaceOnUse">
			<stop offset="0" style="stop-color:#EE352C"/>
			<stop offset="1" style="stop-color:#A91D22"/>
		</radialGradient>
		<path class="st2" d="M-304.5,176.6c0,0-1,1.6,0,4c0.6,1.5,2.3,3.2,4.3,5c0,0,20.1,19.6,22.6,22.4c11.1,12.9,16,25.5,16.4,43    c0.3,11.3-1.9,21.1-7.2,32.5c-9.4,20.5-29.3,43.3-59.8,68.3l4.5-1.5c2.9-2.2,6.9-4.5,16.1-9.5c21.3-11.7,45.3-22.4,74.6-33.4    c42.4-16,111.9-34.6,151.6-40.6l4.1-0.6l-0.6-1c-3.7-5.6-6.2-9.1-9.1-12.8c-8.7-10.7-19.2-19.5-32.1-26.7    c-17.7-10-40.6-17.6-69.6-23.3c-5.4-1-17.4-3.2-27.3-4.7c-20.7-3.2-34.2-5.4-48.8-7.9c-5.3-0.9-13.2-2.2-18.5-3.4    c-2.8-0.6-7.9-1.8-12-3.2C-298.8,181.6-303.5,180.4-304.5,176.6L-304.5,176.6z M-292.8,187.9c0,0,0.7,0.3,1.8,0.6    c1.8,0.6,4,1.3,6.6,2.1c2.1,0.6,4,1,6,1.6c2.8,0.7,5,1.3,5,1.3c0.3,0.3,4.8,15,6.5,20.5c0.6,2.2,1,4,1,4s-0.6-0.7-1.2-1.8    c-5.3-9.4-13.6-18.8-23.3-26.4C-291.9,188.8-292.8,187.9-292.8,187.9L-292.8,187.9z M-270.7,194.1c0.3,0,1.2,0.1,2.5,0.4    c7.6,1.8,21.6,4.4,30.3,5.9c1.5,0.3,2.6,0.4,2.6,0.6c0,0.1-0.6,0.4-1.2,0.7c-1.5,0.7-7.5,4.4-9.5,5.7c-5,3.4-9.5,7-12.8,10.3    c-1.3,1.3-2.5,2.3-2.5,2.3s-0.3-0.7-0.4-1.8c-1.6-6.3-5-15.5-8.1-22.1C-270.2,195-270.7,194.1-270.7,194.1L-270.7,194.1    L-270.7,194.1z M-231.5,201.6c0.3,0.1,0.7,1.6,1.6,5c1.6,6.6,2.5,13.9,2.2,20.7c-0.1,1.9-0.1,3.7-0.3,4l-0.1,0.4l-2.3-0.7    c-4.8-1.5-12.8-3.8-19.5-5.7c-3.8-1-7-2.1-7-2.1c0-0.3,5.6-5.9,8.1-8.1C-244.3,210.9-231.8,201.4-231.5,201.6L-231.5,201.6z     M-228.3,202c0.1-0.1,18.8,3.1,27.1,4.7c6.3,1.2,15.4,3.1,16,3.4c0.3,0.1-0.7,0.6-3.7,2.1c-11.9,5.4-20.8,10.3-29.6,16.1    c-2.3,1.5-4.3,2.8-4.3,2.8s-0.1-1.3-0.1-2.9c0-8.7-1.8-17.3-4.8-24.6C-228.2,202.7-228.4,202-228.3,202z M-180.2,211.4    c0.1,0.1-0.4,3.8-1,6c-1.6,6.7-6,16.7-11.4,26.1c-0.9,1.6-1.8,3.1-1.9,3.1c-0.1,0-1.3-0.6-2.8-1.5c-5.3-3.1-11.1-6-17.7-8.7    c-1.8-0.7-3.4-1.5-3.4-1.5c-0.3-0.3,14.2-10,22-14.5C-190.3,216.8-180.5,211.2-180.2,211.4L-180.2,211.4z M-176.8,212    c0.4,0,8.7,2.2,12.9,3.5c10.6,3.2,22.9,7.6,30.8,11.3l3.4,1.5l-2.3,0.6c-19.5,4.5-36.1,9.7-52.2,16.1c-1.3,0.6-2.5,1-2.6,1    c-0.1,0,0.3-1,0.9-2.3c4.8-10.3,7.9-21,8.8-30.1C-177.1,212.7-177,212-176.8,212L-176.8,212z M-258.8,230.7    c0.1-0.1,6.5,1.3,9.8,2.3c5.1,1.5,16.1,5.1,16.1,5.4c0,0-1.2,1-2.6,2.3c-5.9,5-11.6,10.1-18.5,16.7c-2.1,1.9-3.8,3.5-3.8,3.5    c-0.1,0-0.1-0.3-0.1-0.6c1-7.6,0.9-17.3-0.6-27.3C-258.6,231.9-258.8,230.9-258.8,230.7z M-126.7,230.9c0.1,0.1-2.9,4.8-4.8,7.5    c-2.8,4-6.7,9.1-15.7,20.4c-4.7,6-10.1,12.8-11.9,15c-1.8,2.2-3.4,4.1-3.4,4.1s-0.6-0.9-1.3-1.8c-5.1-7.6-11.1-14.2-18.3-20.2    c-1.3-1.2-2.8-2.3-3.4-2.8c-0.4-0.3-0.9-0.7-0.9-0.7c0-0.1,7.6-3.4,13.5-5.7c10.3-4.1,24.2-9.1,34.6-12.3    C-132.6,232.5-126.7,230.9-126.7,230.9L-126.7,230.9z M-123.2,231.9c0.1,0,1.3,0.4,2.6,1.3c11,6.3,21.7,14.4,30.2,22.7    c2.3,2.3,8.4,8.5,8.2,8.5c0,0-2.1,0.1-4.5,0.3c-19.1,1.5-43.4,5.4-66.9,11.1c-1.6,0.3-2.9,0.7-3.1,0.7c-0.1,0,1.6-1.8,4-4    c13.8-13.2,20.1-21.6,27.4-36.5C-124.2,233.8-123.3,231.9-123.2,231.9L-123.2,231.9L-123.2,231.9z M-223.9,242.2    c0.6,0.1,6.5,2.9,11,5.1c4.1,2.1,10.1,5.3,10.6,5.6c0,0-2.2,1.2-4.8,2.5c-8.5,4.3-15.8,8.2-23.3,12.9c-2.2,1.3-4,2.3-4,2.3    c-0.1,0-0.1-0.1,1-2.3c4.1-7.5,7.3-16.3,9.2-24.9C-224.2,242.6-224,242.2-223.9,242.2L-223.9,242.2z M-229.8,243.2    c0.1,0.1-1.5,5.7-2.3,8.8c-1.9,5.7-5,12.9-8.1,18.3c-0.7,1.3-1.8,3.1-2.3,4.1l-1.2,1.8l-2.5-2.5c-2.9-2.8-5.3-4.5-8.4-6.2    c-1.2-0.6-2.2-1.2-2.2-1.3c0-0.3,7.8-7.3,13.6-12.5C-238.9,250.2-229.9,243.1-229.8,243.2L-229.8,243.2z M-193.8,258l2.2,1.5    c5.1,3.4,11,7.6,15.5,11.6c2.6,2.1,7.6,6.6,8.5,7.6l0.6,0.6l-3.7,1c-20.7,5.7-36.7,10.8-55.4,17.7c-2.1,0.7-3.8,1.5-4,1.5    c-0.3,0-0.4,0.3,4.1-4.1c11.9-11,22.6-23.2,30.3-34.9L-193.8,258L-193.8,258z M-203.2,260.4c0.1,0.1-6.2,8.8-9.8,13.8    c-4.4,5.9-12.3,15.7-17.7,22.1c-2.2,2.6-4.3,4.8-4.3,5c-0.1,0-0.1-0.6-0.1-1.6c0-5.4-1.5-11.3-3.8-16.3c-1-2.1-1.2-2.6-1-2.8    c0.9-0.7,14.1-8.2,22.3-12.8C-212.2,264.8-203.4,260.4-203.2,260.4L-203.2,260.4z M-260.4,274.4c0.1,0,1.2,0.6,2.3,1.2    c2.9,1.6,5.4,3.4,7.8,5.3c0.1,0.1-1,1-2.6,2.2c-4.3,3.1-10.8,8.1-14.7,11c-4,3.2-4.1,3.2-3.7,2.6c2.9-4.5,4.5-7.2,6-10.4    c1.5-2.9,2.8-6.5,3.8-9.4C-261,275.5-260.6,274.4-260.4,274.4L-260.4,274.4z M-245.2,286.3c0.3,0,0.4,0.3,1.8,2.2    c2.6,3.8,4.5,8.9,5.1,13.2l0.1,0.9l-6.2,2.3c-11.1,4.3-21.3,8.5-28.2,11.7c-1.9,0.9-5.3,2.5-7.6,3.7c-2.2,1.2-4,2.1-4,1.9    c0,0,1.5-1,3.1-2.3c13.5-9.8,25.2-20.5,34-31.4C-246.2,287.5-245.5,286.5-245.2,286.3L-245.2,286.3L-245.2,286.3z M-252.2,288.1    c0.1,0.1-5,6-8.5,9.5c-8.8,8.9-17.3,15.8-28.2,22.7c-1.3,0.9-2.6,1.6-2.8,1.8c-0.3,0.1,0.1-0.3,4.8-5.4c2.9-3.2,5.3-5.9,7.8-9.2    c1.8-2.2,2.1-2.5,4.5-4.3C-267.7,298.3-252.3,287.9-252.2,288.1z"/>
	</g>
	<path class="st3" d="M265.6,66.9c-0.7,0-1.4,0-2.4,0c-15.7,0.7-26.5,7.7-32.6,21.2c-5.3,12.3-4.8,28.2,0,40.5   c5.5,12.1,14.7,18.3,29.7,20.7c3.1,0.5,5.3,2.2,11.6,9.4l7.5,8.9h13.7l-9.2-9.2c-5.1-5.1-9.2-9.4-9.2-9.9c0-0.5,1.9-1.2,4.3-1.9   c7.7-2.4,14.2-8.2,18.6-17.4c3.6-7.2,4.1-9.6,4.6-18.8C303.7,83.8,289.4,66.9,265.6,66.9L265.6,66.9L265.6,66.9z M277.6,138.1   c-6.8,3.1-16.4,3.9-22.7,1.4c-6.5-2.4-13-9.2-15.7-16.9c-3.1-8.4-2.7-24.1,1-31.1c5.8-11.1,13.5-16.4,24.8-16.4   c16.6,0,26.3,10.4,27.5,29.4C293.3,121,288,133,277.6,138.1L277.6,138.1z M515.4,90.3c-5.8,0-10.1,2.4-13.3,7l-2.4,3.6v-9.4h-9.9   v56.9h9.9v-18.1c0-16.6,0.2-18.6,2.4-23.2c3.1-6.3,8.7-9.4,14-8l3.6,1v-9.9L515.4,90.3L515.4,90.3L515.4,90.3z M456.6,89.8   c-1.9,0-4.1,0.2-6,0.7c-13.3,3.4-21,16.4-20.5,29.4c0,11.1,2.2,16.6,7.5,22.4c10.9,8.9,20.7,9.6,34,4.8c2.2-1,4.8-2.2,4.8-2.2v-8.9   l-4.8,2.4c-10.9,4.6-18.8,4.6-25.3-0.7c-4.1-4.1-6-9.2-6.8-15h40.3v-7.7C479.7,99.3,470.3,89.4,456.6,89.8L456.6,89.8L456.6,89.8z    M440.4,114.7c0,0,1.4-9.6,7-13.5c2.7-1.9,5.8-2.9,8.7-2.9s6,1,8.4,2.9c5.1,3.9,5.8,13.5,5.8,13.5H440.4L440.4,114.7L440.4,114.7   L440.4,114.7z M199.5,104.3c-10.9-6.5-15.7-11.3-15-16.9c1.7-15.4,20.7-13.3,31.4-7.5V69.6c0,0-5.8-2.4-14.2-2.7   c-12.8-0.2-21.2,4.1-25.1,12.5c-5.8,12.5-0.7,22.2,17.6,32.8c10.4,6,14.7,11.1,14.7,16.9c0,11.6-14,15.7-28.7,8.4   c-2.9-1.4-5.5-2.7-5.5-2.7c-0.5,3.4-0.2,11.3-0.2,11.3s4.6,1.9,11.1,3.1c16.6,3.4,31.6-4.6,33-17.1   C220,120.2,215.9,114.2,199.5,104.3L199.5,104.3L199.5,104.3z M603.7,89.6c-1.9,0-4.1,0.2-6.3,0.7c-13.3,3.4-21,16.4-20.3,29.4   c0,11.1,2.2,16.4,7.5,22.2c10.9,8.9,20.7,9.6,34,4.8c2.2-1,4.8-2.2,4.8-2.2v-8.9l-4.8,2.4c-10.9,4.6-18.8,4.6-25.3-1   c-4.1-4.1-6-9.2-6.8-15h40.3v-7.7C626.8,99.3,617.4,89.4,603.7,89.6L603.7,89.6L603.7,89.6z M587.5,114.4c0,0,1.4-9.6,7-13.7   c2.7-1.9,5.8-2.9,8.7-2.9s6,1,8.4,2.9c5.1,3.9,5.8,13.5,5.8,13.5L587.5,114.4L587.5,114.4L587.5,114.4z M404.5,104.6   c-10.9-6.5-15.7-11.3-15-16.9c1.7-15.4,20.7-13.3,31.4-7.5V69.8c0,0-5.8-2.4-14.2-2.7c-12.8-0.2-21.2,4.1-25.1,12.5   c-5.8,12.5-0.5,22.2,17.6,32.8c10.4,6,14.7,11.1,14.7,16.6c0,11.6-14,15.9-28.7,8.4c-2.9-1.4-5.5-2.7-5.5-2.7   c-0.5,3.4-0.2,11.3-0.2,11.3s4.3,1.7,11.1,3.1c16.6,3.4,31.8-4.6,33-17.1C425,120.5,420.6,114.2,404.5,104.6L404.5,104.6   L404.5,104.6z M662.5,90.1c-5.8,0-10.1,2.4-13.3,7l-2.4,3.6v-9.4H637v56.9h9.9v-18.1c0-16.6,0.2-18.6,2.4-23.2   c3.1-6.3,8.7-9.4,14-8l3.6,1v-9.9L662.5,90.1L662.5,90.1z M324.9,104.3V68.1h-10.1v80.1h42.4v-9.4h-32.3V104.3L324.9,104.3z    M557.9,115.4l-8.2,21.7l-8-21.7l-8.2-24.1h-10.4c6.8,19.1,14,38.1,21.2,56.9c3.1,0,6.3,0,9.6,0l11.1-28.2l11.3-28.7h-9.9   C566.8,91.3,562.5,102.6,557.9,115.4L557.9,115.4L557.9,115.4z M348,46.2c1.7,0,2.9-0.5,4.1-1.7c1.2-1.2,1.7-2.4,1.7-4.1   s-0.5-2.9-1.7-4.1c-1.2-1-2.4-1.4-4.1-1.4s-2.9,0.5-4.1,1.7s-1.7,2.4-1.7,4.1c0,1.7,0.5,2.9,1.7,4.1   C345.1,45.7,346.6,46.2,348,46.2L348,46.2L348,46.2z M344.7,37c1-1,2.2-1.4,3.6-1.4s2.7,0.5,3.6,1.4s1.4,2.2,1.4,3.6   c0,1.4-0.5,2.7-1.4,3.6s-2.2,1.4-3.6,1.4s-2.7-0.5-3.6-1.4s-1.4-2.2-1.4-3.6C343.2,39,343.7,38,344.7,37z M347.1,41.1h0.7   c0.5,0,1,0.5,1.2,1.2l0.7,1.7h1.2l-1-1.9c-0.5-0.7-0.7-1.2-1.2-1.4c0.5-0.2,1-0.2,1.4-0.7c0.2-0.2,0.5-0.7,0.5-1.2   c0-0.5-0.2-1-0.5-1.4c-0.5-0.5-1.2-0.5-2.2-0.5h-2.2V44h1L347.1,41.1L347.1,41.1L347.1,41.1z M347.1,37.8h1c0.7,0,1.2,0.2,1.4,0.2   c0.2,0.2,0.2,0.5,0.2,1c0,0.7-0.5,1.2-1.4,1.2h-1.2V37.8L347.1,37.8L347.1,37.8z M180.7,40.4c0-2.4,0-4.3-0.2-5.5l0,0   c0.2,1.2,0.5,2.2,0.7,2.9l9.6,21.7h1.7l9.6-21.7c0.2-0.5,0.5-1.4,0.7-2.7l0,0c-0.2,2.2-0.2,4.1-0.2,5.5v19.1h3.4V31.2h-4.1L193,51   c-0.2,0.7-0.7,1.9-1.4,3.4h0.2c-0.2-0.7-0.7-1.9-1.2-3.4l-8.7-20h-4.6v28.5h3.1L180.7,40.4L180.7,40.4L180.7,40.4z M213.5,40.4h2.9   V58h-2.9V40.4z M214.9,33.9c0.5,0,1.2-0.2,1.4-0.5c0.5-0.5,0.7-1,0.7-1.4c0-0.5-0.2-1.2-0.7-1.4c-0.5-0.5-1-0.5-1.4-0.5   s-1.2,0.2-1.4,0.5c-0.5,0.5-0.7,1-0.7,1.4c0,0.7,0.2,1.2,0.7,1.4C213.9,33.7,214.4,33.9,214.9,33.9L214.9,33.9L214.9,33.9z    M236.9,58.5v-3.1c-1.4,1.2-3.1,1.7-5.1,1.7c-2.2,0-3.9-0.7-5.1-2.2c-1.2-1.4-1.9-3.1-1.9-5.5s0.7-4.3,1.9-5.8   c1.2-1.4,2.9-2.2,5.1-2.2c1.7,0,3.4,0.5,4.8,1.4v-3.4c-1.4-0.7-2.9-1-4.6-1c-3.1,0-5.8,1-7.7,3.1c-1.9,1.9-2.9,4.8-2.9,8   c0,2.9,0.7,5.3,2.7,7.2c1.9,1.9,4.1,2.9,7,2.9C233.5,59.9,235.2,59.5,236.9,58.5L236.9,58.5z M244.8,49.1c0-2.4,0.5-4.1,1.4-5.5   c1-1.2,1.9-1.7,3.4-1.7c1.2,0,1.9,0.2,2.4,0.7v-3.4c-0.5-0.2-1.2-0.2-1.9-0.2c-1.2,0-2.2,0.5-3.1,1.2c-1,0.7-1.7,1.9-2.2,3.4l0,0   v-4.1h-3.1v20.3h3.1L244.8,49.1L244.8,49.1z M263.6,59.9c3.1,0,5.5-1,7.2-2.9c1.9-1.9,2.7-4.6,2.7-7.7c0-3.4-0.7-5.8-2.4-7.7   c-1.7-1.9-4.1-2.9-7-2.9s-5.5,1-7.2,2.7c-1.9,1.9-2.9,4.6-2.9,8.2c0,3.1,0.7,5.5,2.7,7.5C258.1,58.7,260.5,59.9,263.6,59.9   L263.6,59.9L263.6,59.9z M259,43.3c1.2-1.2,2.9-1.9,4.8-1.9c2.2,0,3.6,0.7,4.8,1.9c1.2,1.4,1.7,3.4,1.7,5.8s-0.5,4.3-1.7,5.8   c-1.2,1.4-2.7,2.2-4.8,2.2s-3.6-0.7-4.8-2.2c-1.2-1.4-1.9-3.1-1.9-5.8C257.1,46.7,257.6,44.7,259,43.3L259,43.3z M287.7,58   c1.2-1.2,1.9-2.4,1.9-4.1c0-1.4-0.5-2.7-1.4-3.6c-0.7-0.7-1.9-1.4-3.9-2.2c-1.4-0.7-2.4-1.2-3.1-1.7c-0.5-0.5-0.7-1.2-0.7-2.2   c0-0.7,0.2-1.4,1-1.9c0.7-0.5,1.4-0.7,2.7-0.7c1.7,0,3.1,0.5,4.6,1.4v-3.1c-1.2-0.7-2.7-1-4.3-1c-2.2,0-3.9,0.5-5.1,1.7   c-1.4,1.2-1.9,2.4-1.9,4.1c0,1.4,0.5,2.7,1.2,3.6c0.7,0.7,1.9,1.4,3.6,2.2c1.7,0.7,2.7,1.4,3.4,1.9c0.5,0.5,0.7,1.2,0.7,1.9   c0,1.9-1.2,2.9-3.9,2.9c-1.9,0-3.6-0.7-5.3-1.9v3.4c1.4,1,3.1,1.2,5.1,1.2C284.6,59.9,286.5,59.2,287.7,58L287.7,58L287.7,58z    M303.2,38.7c-3.1,0-5.5,1-7.2,2.7c-1.9,1.9-2.9,4.6-2.9,8.2c0,3.1,0.7,5.5,2.7,7.5c1.9,1.9,4.1,2.9,7.2,2.9c3.1,0,5.5-1,7.2-2.9   c1.9-1.9,2.7-4.6,2.7-7.7c0-3.4-1-5.8-2.4-7.7C308.5,39.4,306.3,38.7,303.2,38.7L303.2,38.7L303.2,38.7z M309.5,49.3   c0,2.4-0.5,4.3-1.7,5.8c-1.2,1.4-2.7,2.2-4.8,2.2s-3.6-0.7-4.8-2.2c-1.2-1.4-1.9-3.1-1.9-5.8s0.7-4.6,1.9-6   c1.2-1.2,2.9-1.9,4.8-1.9s3.6,0.7,4.8,1.9C309,44.7,309.5,46.7,309.5,49.3L309.5,49.3L309.5,49.3z M318.4,59.5h3.1V41.9h4.8v-2.7   h-4.8v-3.1c0-2.9,1.2-4.3,3.4-4.3c0.7,0,1.4,0.2,2.2,0.5v-2.9c-0.5-0.2-1.4-0.2-2.4-0.2c-1.7,0-3.1,0.5-4.3,1.7   c-1.4,1.2-2.2,2.9-2.2,5.3v3.4h-3.4v2.7h3.4L318.4,59.5L318.4,59.5z M331.6,53.9c0,3.9,1.7,6,5.3,6c1.2,0,2.2-0.2,3.1-0.7v-2.9   c-0.5,0.5-1.2,0.7-2.2,0.7c-1.2,0-1.9-0.2-2.4-1c-0.5-0.5-0.7-1.4-0.7-2.9V41.9h5.1v-2.7h-5.1v-6c-1.2,0.5-2.2,0.7-3.1,1V39h-3.4   v2.7h3.4L331.6,53.9L331.6,53.9z M679.7,91.1c-1.2-1-2.4-1.4-4.1-1.4c-1.7,0-2.9,0.5-4.1,1.7c-1.2,1.2-1.7,2.4-1.7,4.1   c0,1.7,0.5,2.9,1.7,4.1c1.2,1,2.4,1.4,4.1,1.4c1.7,0,2.9-0.5,4.1-1.7c1.2-1.2,1.7-2.4,1.7-4.1C681.4,93.5,680.9,92.3,679.7,91.1   L679.7,91.1z M679.2,98.8c-1,1-2.2,1.4-3.6,1.4c-1.4,0-2.7-0.5-3.6-1.4c-1-1-1.4-2.2-1.4-3.6c0-1.4,0.5-2.7,1.4-3.6   c1-1,2.2-1.4,3.6-1.4c1.4,0,2.7,0.5,3.6,1.4c1,1,1.4,2.2,1.4,3.6C680.6,96.6,680.4,97.8,679.2,98.8z M676.3,95.4   c0.5-0.2,1-0.5,1.4-0.7c0.2-0.2,0.5-0.7,0.5-1.2c0-0.5-0.2-1-0.5-1.4c-0.5-0.5-1.2-0.5-2.2-0.5h-2.2v7.2h1v-2.9h0.7   c0.5,0,1,0.5,1.2,1.2l0.7,1.7h1.2l-1-1.9C677,96.1,676.8,95.6,676.3,95.4L676.3,95.4L676.3,95.4z M675.6,94.9h-1.2v-2.4h1   c0.7,0,1.2,0,1.4,0.2c0.2,0.2,0.2,0.5,0.2,1C677,94.4,676.5,94.9,675.6,94.9L675.6,94.9L675.6,94.9z"/>
</g>
</svg>