<svg xmlns="http://www.w3.org/2000/svg" width="200" height="40" viewBox="0 0 200 40">
    <g fill="#FFF" fill-rule="nonzero">
        <path d="M185.032 28.725v-.323h2.473v.323h-.824v3.63h-.825v-3.63h-.824zm-138.197 3.63v-5.97h2.474c.33 0 .577.08.907.242.247.161.495.323.66.565.164.242.247.565.247.968 0 .404-.083.807-.248 1.05-.164.241-.412.403-.742.564-.33.08-.742.161-1.319.161h-.825v2.502h-1.154v-.081zm1.154-5.647v2.824h.578c.494 0 .907-.08 1.072-.404.247-.242.33-.645.33-1.13 0-.241-.083-.483-.165-.645-.083-.161-.248-.323-.495-.484-.248-.161-.495-.161-.907-.161h-.413zm5.278 5.648h-.825V28.32h1.732c.247 0 .412.081.577.162.165.08.33.242.412.403.083.162.165.323.165.565 0 .323-.082.484-.165.646-.165.161-.33.322-.66.322l1.072 1.937h-.989l-.99-2.017h.083c.577 0 .825-.323.825-.888a.725.725 0 0 0-.248-.565c-.165-.161-.33-.242-.66-.242h-.412v3.712h.083zm14.512-3.954v.323h-1.567c-.165 0-.247.08-.247.161v1.291h1.484v.404h-1.484v1.29c0 .162.082.324.33.324h1.566v.322h-2.143c-.248 0-.413-.08-.495-.161-.083-.08-.165-.323-.165-.565V29.29c0-.242.082-.484.165-.565.082-.161.33-.242.577-.242h1.979v-.08zm9.07-2.098c.165 0 .33.081.412.162a.61.61 0 0 1 .165.403.61.61 0 0 1-.165.404.637.637 0 0 1-.412.16.637.637 0 0 1-.412-.16.61.61 0 0 1-.165-.404c0-.161.082-.242.165-.403.165-.081.247-.162.412-.162zm.412 6.052h-.824V28.32h.824v4.035zm7.339 0h-.412v-3.389c0-.161.082-.323.165-.484.082-.08.247-.162.494-.162.165 0 .248 0 .33.081l.248.242c.247.323.494.726.742 1.13.247.403.494.726.577.807a.999.999 0 0 0 .165.242c.082 0 .082 0 .082-.08V28.32h.413v4.035c0 .08-.083.08-.248.08-.082 0-.165 0-.165-.08-.082 0-.082-.08-.165-.161-.082-.081-.082-.162-.165-.243l-.33-.484a19.776 19.776 0 0 0-1.154-1.694c-.247-.323-.412-.565-.412-.646-.083-.08-.083-.161-.165-.161s-.082.08-.082.161v3.228h.082zm4.535 0h-.412l.907-3.389c.082-.242.165-.403.247-.484.083-.08.248-.162.495-.162s.412.081.495.162c.082.161.165.323.247.645l.99 3.228h-.908l-.33-1.21h-1.484l-.247 1.21zm.495-1.614h1.32l-.496-1.533c0-.08 0-.161-.082-.242 0-.08 0-.08-.083-.161l-.082-.081c-.082 0-.082 0-.082.08 0 .081-.083.162-.083.323l-.412 1.614zm3.958-4.438h.824v5.729H95.072v.323h-.99c-.247 0-.33-.08-.412-.161-.082-.081-.082-.243-.082-.404v-5.487zm19.13 2.42v-.322h2.473v.323h-.824v3.63h-.825v-3.63h-.824zm3.133-.322h.907l.824 2.824c.083.242.083.323.165.404 0 .08.083.161.083.161 0 .08.082.08.082.08s.083 0 .083-.08.082-.08.082-.161 0-.162.083-.162l.33-1.049-.66-2.017h.907l.907 2.986c0 .08.082.161.082.242 0 .08.083.161.083.161l.082.08h.083s0-.08.082-.08v-.161l.907-3.228h.495l-1.072 3.55c-.082.243-.165.323-.247.404-.083.08-.33.08-.578.08-.33 0-.577-.16-.66-.484l-.247-.887-.247.726c-.082.242-.165.404-.247.484-.083.08-.248.08-.413.08-.165 0-.33-.08-.494-.16-.083-.081-.248-.243-.248-.485l-1.154-3.308zm6.679 3.954h-.412l.989-3.389c.082-.242.165-.403.247-.484.083-.08.248-.162.495-.162s.412.081.495.162c.082.161.165.323.247.645l.99 3.228h-.907l-.33-1.21h-1.484l-.33 1.21zm.412-1.614h1.32l-.495-1.533c0-.08 0-.161-.083-.242 0-.08 0-.08-.082-.161l-.083-.081c-.082 0-.082 0-.082.08 0 .081-.083.162-.083.323l-.412 1.614zm4.783 1.614h-.825V28.32h1.732c.247 0 .412.081.577.162.165.08.33.242.412.403.083.162.165.323.165.565 0 .323-.082.484-.165.646-.165.161-.33.242-.66.322l1.072 1.937h-.99l-.989-2.017h.083c.577 0 .824-.323.824-.888a.725.725 0 0 0-.247-.565c-.165-.161-.33-.242-.66-.242h-.412v3.712h.083zm6.266-3.954v.323h-1.566c-.165 0-.165.08-.165.161v1.291h1.484v.404h-1.484v1.29c0 .162.082.324.33.324h1.566v.322h-2.144c-.247 0-.33-.08-.494-.161-.083-.08-.165-.323-.165-.565V29.29c0-.242.082-.484.165-.565.082-.161.247-.242.577-.242h1.896v-.08zm4.783 3.954v-5.971h1.979c.494 0 .99.08 1.401.242.413.161.742.403.99.726.247.323.495.646.577.968.165.404.165.727.165 1.21 0 .646-.165 1.13-.412 1.615a2.486 2.486 0 0 1-1.072.968c-.413.242-.99.323-1.567.323h-2.061v-.081zm1.154-5.568v5.245h.742c.577 0 .99-.08 1.32-.323.33-.242.577-.564.66-.887.164-.404.164-.807.164-1.21 0-.485-.082-.969-.247-1.372a2.208 2.208 0 0 0-.742-.968c-.33-.243-.743-.323-1.155-.323h-.742v-.162zm8.163 1.614v.323h-1.566c-.165 0-.165.08-.165.161v1.291h1.484v.404h-1.484v1.29c0 .162.082.324.33.324h1.566v.322h-2.144c-.247 0-.33-.08-.494-.161-.083-.08-.165-.323-.165-.565V29.29c0-.242.082-.484.165-.565.082-.161.33-.242.577-.242h1.896v-.08zm4.453 0l-.99 3.47c-.082.242-.165.403-.247.484-.082.08-.247.161-.495.161-.247 0-.412-.08-.494-.161-.083-.161-.165-.323-.248-.565l-.99-3.389h.908l.907 3.066c0 .081.082.162.082.242 0 .081 0 .081.083.081l.082.08s.083 0 .083-.08.082-.161.082-.242l.907-3.066h.33v-.08zm3.958 0v.323h-1.567c-.165 0-.247.08-.247.161v1.291h1.484v.404h-1.484v1.29c0 .162.082.324.33.324h1.566v.322h-2.144c-.247 0-.33-.08-.494-.161-.083-.08-.165-.323-.165-.565V29.29c0-.242.082-.484.165-.565.082-.161.33-.242.577-.242h1.979v-.08zm1.484-2.017h.825V32.033H159.47v.323h-.99c-.247 0-.33-.08-.412-.161-.082-.081-.082-.243-.082-.404v-5.406zm8.658 7.988h-.825v-5.97h1.32c.412 0 .824.08 1.154.241.33.162.577.404.825.726.164.323.247.646.247 1.05 0 .645-.165 1.129-.495 1.452-.33.323-.824.484-1.402.484h-.824v2.017zm0-5.729v3.39h.577c.247 0 .495-.082.66-.162.165-.162.33-.323.412-.565.082-.242.165-.484.165-.807 0-.323 0-.645-.083-.887-.082-.243-.247-.485-.412-.727-.247-.161-.577-.322-.99-.322h-.33v.08zm4.535 3.712h-.412v-3.308c0-.242.082-.404.165-.565.082-.162.247-.162.494-.162.248 0 .413.081.495.162.083.08.165.323.247.565l.578 1.775.577-2.098c.082-.161.082-.242.247-.323.083-.08.248-.08.412-.08.248 0 .413.08.578.242.165.16.165.322.165.564v3.309h-.825V28.887h-.082s-.083.08-.083.16c0 .081-.082.323-.165.646l-.66 2.34c-.082.162-.082.242-.082.323 0 .08-.082.08-.165.08-.082 0-.165 0-.165-.08s-.082-.161-.082-.323l-.825-2.824c0-.08-.082-.161-.082-.242l-.083-.08V32.355h-.247zm7.916-3.954v.323h-1.567c-.165 0-.165.08-.165.161v1.291h1.484v.404h-1.566v1.29c0 .162.082.324.33.324h1.566v.322h-2.144c-.247 0-.33-.08-.494-.161-.083-.08-.165-.323-.165-.565V29.29c0-.242.082-.484.165-.565.082-.161.33-.242.577-.242h1.979v-.08zm1.814 3.954h-.413v-3.389c0-.161.083-.323.165-.484.083-.08.248-.162.495-.162.165 0 .248 0 .33.081l.247.242c.248.323.495.726.742 1.13.248.403.495.726.578.807a.999.999 0 0 0 .165.242c.082 0 .082 0 .082-.08V28.32h.412v4.035c0 .08-.082.08-.247.08-.083 0-.165 0-.165-.08-.082 0-.082-.08-.165-.161 0-.081-.082-.162-.165-.243l-.33-.484a19.776 19.776 0 0 0-1.154-1.694c-.247-.323-.412-.565-.412-.646-.083-.08-.083-.161-.165-.161-.083 0-.083.08-.083.161v3.228h.083zm-68.851-3.631h-.99v3.63h-.824v-5.163c0-.404 0-.646.165-.807.082-.161.33-.242.824-.242.248 0 .495.08.825.08v.404h-.66c-.165 0-.33.161-.33.323v1.452h.99v.323zm-48.072-.08v-.162h-.99v3.792h-.824v-5.164c0-.403 0-.645.165-.807.082-.161.33-.242.824-.242.248 0 .495.08.825.08v.404h-.66c-.165 0-.33.162-.33.323V28.241h.99v.403zm7.256 3.227c-.082.161-.247.323-.495.242-.247 0-.494.08-.742.08h-.577c-.247 0-.412 0-.577-.08v-.242c.33.08.577.08.824.08.825 0 .907-.322.907-.564 0-.081-.082-.323-.33-.484-.164-.081-.247-.162-.577-.323-.33-.162-.494-.323-.66-.484a.905.905 0 0 1-.247-.646c0-.403.165-.726.495-.887.412-.243.99-.243 1.897-.162v.323c-.33-.08-.413-.08-.578-.08H70.5c-.33 0-.495 0-.66.08l-.165.161c-.082 0-.082.081-.082.162v.08c0 .081.082.242.165.323l.165.162c.082.08.165.16.33.242l.165.08c.33.162.577.404.742.565.165.161.33.404.33.726 0 .242-.083.404-.248.646zm3.628 0c-.082.161-.33.323-.495.242-.247 0-.494.08-.742.08h-.577c-.247 0-.412 0-.577-.08v-.242c.33.08.577.08.825.08.824 0 .907-.322.907-.564 0-.081-.083-.323-.33-.484-.165-.081-.248-.162-.577-.323a2.272 2.272 0 0 1-.66-.484.905.905 0 0 1-.248-.646c0-.403.165-.726.495-.887.413-.243.99-.243 1.897-.162v.323c-.33-.08-.413-.08-.577-.08h-.083c-.33 0-.495 0-.66.08l-.164.161c-.083 0-.083.081-.083.162v.08c0 .081.083.242.165.323l.165.162c.082.08.165.16.33.242l.165.08c.33.162.577.404.742.565.165.161.33.404.33.726 0 .242-.083.404-.248.646zm31.828-3.631c1.155 0 2.062.968 2.144 2.098 0 1.13-.99 2.098-2.144 2.098-1.237 0-2.144-.888-2.144-2.098 0-1.13.99-2.098 2.144-2.098zm0 3.954c.577 0 1.072-.807 1.155-1.776 0-.968-.495-1.775-1.155-1.775s-1.154.807-1.154 1.775c0 .969.495 1.776 1.154 1.776zm-3.628-.565c-.247.322-.495.565-.577.807-.33.161-.66.242-.99.242-.907 0-1.566-.323-1.978-.969l.412-.322c.165.242.412.403.577.564.247.081.412.162.742.162.66 0 1.155-.484 1.155-1.05 0-.322-.165-.564-.413-.806-.082 0-.082-.08-.165-.08-.33-.162-.494-.323-.99-.485-.494-.242-.824-.403-1.071-.645s-.412-.565-.412-1.05c0-.322.082-.645.247-.887.165-.242.412-.484.742-.645.247-.162.66-.242.99-.242.247 0 .494.08.742.161.247.08.494.242.66.403.164.162.33.323.412.565l-.413.242c-.247-.645-.66-.887-1.236-.887h-.33c-.413.08-.742.484-.742.887 0 .323.164.646.494.807.248.08.413.162.907.404.578.242.907.484 1.155.726.247.323.412.726.412 1.13 0 .322-.082.645-.33.968zm-22.263-3.39c1.154 0 2.061.888 2.144 2.099 0 1.13-.99 2.098-2.144 2.098-1.237 0-2.144-.888-2.144-2.098 0-1.13.99-2.098 2.144-2.098zm0 3.874c.577 0 1.154-.807 1.154-1.775 0-.969-.494-1.775-1.154-1.775-.66 0-1.154.806-1.154 1.775 0 .968.494 1.775 1.154 1.775zM58.544 28.24c1.237 0 2.144.887 2.144 2.098 0 1.13-.99 2.098-2.144 2.098-1.237 0-2.144-.888-2.144-2.098 0-1.13.99-2.098 2.144-2.098zm0 3.873c.66 0 1.154-.807 1.154-1.775 0-.969-.494-1.775-1.154-1.775-.66 0-1.155.806-1.155 1.775 0 .968.495 1.775 1.155 1.775zm103.812-3.873c1.155 0 2.062.887 2.144 2.098 0 1.13-.99 2.098-2.144 2.098-1.237 0-2.144-.888-2.144-2.098 0-1.13.99-2.098 2.144-2.098zm0 3.873c.577 0 1.072-.807 1.155-1.775 0-.969-.495-1.775-1.155-1.775s-1.154.806-1.154 1.775c0 .968.494 1.775 1.154 1.775zM78.086 10.812h3.133v12.345h-3.133V10.812zm1.567-5.97c.577 0 .99.241 1.319.564.33.323.495.807.495 1.291 0 .484-.165.968-.495 1.291-.33.404-.742.565-1.32.565-.494 0-.989-.242-1.319-.565-.33-.403-.494-.807-.494-1.29 0-.485.165-.97.494-1.292.33-.403.742-.565 1.32-.565zm8.905 16.298c0 .323.082.565.495.404h4.782v1.533h-6.267c-.66 0-1.236-.162-1.649-.565-.412-.323-.577-.968-.577-1.775v-7.262c0-.807.165-1.452.495-1.937.33-.564 1.072-.806 2.061-.806h6.02v1.533h-5.113c-.247 0-.247.08-.247.242v3.389h4.453v1.775h-4.453v3.47zm17.48-3.227l.083-6.94h1.814V22.11a3.1 3.1 0 0 1-.165 1.048c-.165.243-.495.404-.99.404a1.35 1.35 0 0 1-.741-.242 1.906 1.906 0 0 1-.578-.565c-.082-.161-.247-.403-.412-.645l-.99-1.453c-1.484-2.34-2.638-3.954-3.298-5.003-.742-1.048-1.154-1.694-1.319-1.936v9.602h-1.814V12.99c0-.646.247-1.21.66-1.533.412-.323.907-.484 1.566-.484.495 0 .907.08 1.237.322.33.242.66.484.907.888.66.887 1.484 2.017 2.309 3.227.825 1.21 1.402 2.018 1.65 2.421l.082.08zm73.387-7.1h8.08v1.774h-2.473v10.57h-3.134v-10.57h-2.473v-1.775zM129.456 21.14c0 .323.083.565.495.404h4.782v1.533h-6.266c-.742 0-1.237-.162-1.65-.565-.412-.323-.577-.968-.577-1.775v-7.262c0-.807.165-1.452.495-1.937.33-.564 1.072-.806 2.061-.806h6.02v1.533h-5.112c-.248 0-.248.08-.248.242v3.389h4.453v1.775h-4.453v3.47zm-10.39.807c.99-.242 1.98-1.049 2.392-2.34l1.484.726c-.742 1.05-1.237 1.776-2.226 2.34-.742.484-1.65.727-2.804.727a6.49 6.49 0 0 1-3.298-.888c-.082 0-.165-.08-.247-.161 0-.081-.083-.081-.165-.162-.165-.08-.248-.161-.33-.242l-.495-.484-.165-.161c-.082-.081-.165-.162-.247-.323-.083-.161-.165-.242-.247-.404 0-.08-.083-.08-.083-.16 0-.082-.082-.243-.165-.324a6.72 6.72 0 0 1-.742-2.582v-.645c0-1.13.33-2.179.825-3.147a5.582 5.582 0 0 1 2.226-2.34c.907-.565 2.061-.888 3.298-.888 1.072 0 2.062.243 2.804.727.99.564 1.566 1.29 2.226 2.34l-1.484.726c-.742-1.372-1.98-2.26-3.216-2.26-.66 0-1.237.243-1.732.646-.494.484-.824 1.049-1.071 1.775-.248.726-.33 1.533-.33 2.34 0 1.452.247 2.663.742 3.712.495.968 1.32 1.452 2.556 1.452h.495zm-48.978 0c.99-.242 1.979-1.049 2.473-2.34l1.485.726c-.742 1.05-1.237 1.776-2.227 2.34-.742.484-1.649.727-2.803.727a6.49 6.49 0 0 1-3.298-.888c-.083 0-.165-.08-.248-.161 0-.081-.082-.081-.165-.162-.165-.08-.247-.161-.33-.242l-.494-.484-.165-.161a.637.637 0 0 1-.33-.323c-.082-.161-.165-.242-.247-.404 0-.08-.083-.08-.083-.16 0-.082-.082-.243-.165-.324a6.72 6.72 0 0 1-.742-2.582v-.645c0-1.13.33-2.179.825-3.147a5.582 5.582 0 0 1 2.226-2.34c.907-.565 2.061-.888 3.298-.888 1.072 0 2.062.243 2.804.727.99.564 1.566 1.29 2.226 2.34l-1.484.726c-.742-1.372-1.98-2.26-3.216-2.26-.66 0-1.237.243-1.732.646-.494.484-.824 1.049-1.071 1.775-.248.726-.33 1.533-.33 2.34 0 1.452.247 2.663.742 3.712.495.968 1.32 1.452 2.556 1.452h.495zm90.784-11.377c3.628 0 6.596 2.905 6.596 6.455 0 3.55-2.968 6.455-6.596 6.455s-6.597-2.905-6.597-6.455c0-3.55 2.969-6.455 6.597-6.455zm0 11.377c1.732 0 3.05-2.178 3.05-4.922 0-2.743-1.4-4.922-3.05-4.922-1.732 0-3.05 2.179-3.05 4.922 0 2.744 1.4 4.922 3.05 4.922zm13.275-11.135h2.721v1.775h-2.803v10.57h-3.133V8.23c0-3.147.907-3.711 6.019-3.227v1.775h-2.144c-.33.08-.66.323-.66.645v3.389zM58.132 20.898c-.578.726-1.237 1.453-2.31 1.775a6.12 6.12 0 0 1-2.885.727c-2.639 0-4.618-.969-5.772-2.825l-.083-.08 1.402-.968.083.08c.494.726.99 1.291 1.566 1.614.578.403 1.237.565 2.062.565 1.731 0 3.133-1.372 3.133-2.986 0-.887-.33-1.613-1.072-2.178-.082-.081-.247-.162-.33-.242-.742-.404-1.319-.727-2.72-1.291-1.567-.646-2.557-1.21-3.217-1.856-.742-.726-1.154-1.856-1.154-3.228 0-.887.33-1.775.825-2.582a5.366 5.366 0 0 1 2.144-1.856 6.205 6.205 0 0 1 2.968-.726c.742 0 1.484.162 2.226.404.742.322 1.402.645 1.98 1.13.576.483.989 1.048 1.318 1.694v.08l-1.319.888-.082-.08c-.742-1.614-1.897-2.421-3.546-2.421-.247 0-.577 0-.824.08-1.237.323-2.144 1.372-2.144 2.582 0 .969.577 1.856 1.484 2.34.577.323 1.237.646 2.556 1.21 1.567.646 2.639 1.292 3.38 2.018.825.807 1.32 2.017 1.32 3.308 0 .888-.33 1.856-.99 2.824zm92.35 0c-.494.726-1.154 1.453-2.308 1.775a6.12 6.12 0 0 1-2.886.727c-2.639 0-4.618-.969-5.772-2.825l-.083-.08 1.402-.968.083.08c.494.726.989 1.291 1.566 1.614.577.403 1.237.565 2.062.565 1.731 0 3.133-1.372 3.133-2.986 0-.887-.33-1.613-1.072-2.178-.082-.081-.247-.162-.33-.242-.742-.404-1.32-.727-2.72-1.291-1.568-.646-2.557-1.21-3.217-1.856-.742-.726-1.154-1.856-1.154-3.228 0-.887.33-1.775.825-2.582a5.366 5.366 0 0 1 2.143-1.856 6.205 6.205 0 0 1 2.969-.726c.742 0 1.484.162 2.226.404.742.322 1.402.645 1.98 1.13.576.483.989 1.048 1.318 1.694v.08l-1.319.888-.082-.08c-.742-1.614-1.897-2.421-3.546-2.421-.33 0-.577 0-.825.08-1.236.323-2.143 1.372-2.143 2.582 0 .969.577 1.856 1.484 2.34.577.323 1.237.646 2.556 1.21 1.567.646 2.721 1.292 3.38 2.018.825.807 1.32 2.017 1.32 3.308 0 .888-.33 1.856-.99 2.824zM17.893 19.85c5.772 2.5 8.163 4.84 8.163 8.068 0 5.971-5.524 9.037-15.667 9.037H0V.323h12.946C8.988 2.905 8.163 6.616 8.163 9.279c0 5.81 4.783 8.392 9.73 10.57zm10.72 4.84h8.822v2.421H29.19c-.082-.887-.247-1.694-.577-2.42zm-4.124-4.84h12.946v2.42H27.211c-.743-.888-1.732-1.695-2.722-2.42zm12.946 9.763v2.42h-8.988c.33-.807.578-1.694.66-2.42h8.328zm0-26.87h-22.51c3.05-1.936 7.668-2.42 11.79-2.42h10.72v2.42zm-10.472 31.71h10.472v2.421H24.16c1.236-.726 2.144-1.533 2.803-2.42zM12.451 5.165h24.984v2.42H11.544a7.778 7.778 0 0 1 .907-2.42zm2.72 9.763v.081h22.182v2.42H20.037c-.248-.16-.577-.241-.825-.403a35.289 35.289 0 0 1-4.04-2.098zm-3.71-4.841h25.974v2.42H12.368c-.494-.726-.824-1.532-.907-2.42z"/>
    </g>
</svg>
